<!DOCTYPE svg PUBLIC "-//W3C//DTD SVG 1.1//EN" "http://www.w3.org/Graphics/SVG/1.1/DTD/svg11.dtd">
<!-- Uploaded to: SVG Repo, www.svgrepo.com, Transformed by: SVG Repo Mixer Tools -->
<svg fill="#000000" height="800px" width="800px" version="1.1" id="Layer_1" xmlns="http://www.w3.org/2000/svg" xmlns:xlink="http://www.w3.org/1999/xlink" viewBox="0 0 512 512" xml:space="preserve" stroke="#000000">
<g id="SVGRepo_bgCarrier" stroke-width="0"/>
<g id="SVGRepo_tracerCarrier" stroke-linecap="round" stroke-linejoin="round"/>
<g id="SVGRepo_iconCarrier"> <g> <g> <path d="M476.886,337.609c-29.533-29.533-72.785-37.15-109.422-22.902l-53.474-53.474l145.25-145.25 c32.028-32.028,32.028-83.954,0-115.981l-203.24,203.24L52.759,0c-32.026,32.028-32.026,83.954,0,115.981l145.25,145.25 l-53.474,53.474c-36.636-14.248-79.889-6.631-109.422,22.902c-39.841,39.843-39.841,104.668,0,144.511 c39.843,39.843,104.668,39.843,144.511,0c36.303-36.303,39.512-93.344,9.656-133.334l66.721-66.721l66.721,66.721 c-29.856,39.987-26.648,97.029,9.655,133.334c39.843,39.843,104.668,39.843,144.511,0 C516.728,442.277,516.728,377.45,476.886,337.609z M140.212,442.706c-18.109,18.111-47.577,18.111-65.686,0 c-18.111-18.109-18.111-47.577,0-65.686c18.109-18.111,47.577-18.111,65.686,0C158.322,395.129,158.322,424.597,140.212,442.706z M437.474,442.706c-18.109,18.111-47.577,18.111-65.686,0c-18.111-18.109-18.111-47.577,0-65.686 c18.109-18.111,47.577-18.111,65.686,0C455.585,395.129,455.585,424.597,437.474,442.706z"/> </g> </g> </g>
</svg>