<svg width="21" height="18" viewBox="0 0 21 18" fill="none" xmlns="http://www.w3.org/2000/svg">
<path d="M15.8739 6.41219C17.7109 7.2703 18.6292 7.69934 18.9442 8.24874C19.2193 8.72842 19.2193 9.27152 18.9442 9.7513C18.6292 10.3006 17.7109 10.7296 15.8739 11.5878L7.24649 15.6183C5.20777 16.5707 4.1884 17.047 3.34719 16.9963C2.61394 16.9523 1.9418 16.6739 1.50319 16.2325C1 15.7261 1 14.8275 1 13.0305V4.96951C1 3.17248 1 2.27398 1.50319 1.76756C1.9418 1.32614 2.61394 1.04769 3.34719 1.00362C4.1884 0.953077 5.20777 1.42929 7.24649 2.38171L15.8739 6.41219Z" stroke="black" stroke-width="2" stroke-linejoin="round"/>
</svg>
